<svg width="183" height="42" viewBox="0 0 183 42" fill="none" xmlns="http://www.w3.org/2000/svg">
<path d="M31.2195 10.9117C32.6797 10.1287 34.5249 10.6738 35.0548 12.2436C36.1041 15.3526 36.2897 18.7091 35.5618 21.9475C34.6131 26.1679 32.1764 29.9056 28.6974 32.4764C25.2185 35.0471 20.9302 36.2791 16.6172 35.9468C12.3043 35.6145 8.25527 33.7401 5.21122 30.6668C2.16718 27.5934 0.331712 23.5266 0.0407621 19.2107C-0.250188 14.8948 1.02284 10.6184 3.62684 7.1643C6.23085 3.71018 9.99167 1.30933 14.221 0.401166C17.4663 -0.295698 20.8208 -0.0779086 23.9196 1.00118C25.4843 1.54605 26.0116 3.39643 25.2147 4.84904L22.8635 9.13485C21.4275 11.7524 24.2802 14.6326 26.9114 13.2217L31.2195 10.9117Z" fill="url(#paint0_linear_6_47)"/>
<path d="M30.1512 13.8844C30.7675 13.5515 31.462 13.5132 32.0072 13.7128C32.5384 13.9074 32.9261 14.322 33.0076 14.9465C33.2736 16.9864 32.7862 19.0436 32.224 21.4163C32.1834 21.5878 32.1424 21.761 32.1012 21.9359C31.2755 25.4449 29.2138 28.5391 26.2934 30.6523C23.373 32.7655 19.7892 33.7563 16.1981 33.4434C12.6069 33.1306 9.24855 31.5349 6.7376 28.9485C4.22664 26.3621 2.73108 22.958 2.52462 19.3591C2.31816 15.7603 3.41462 12.2075 5.61332 9.35088C7.81203 6.49431 10.9659 4.52506 14.4977 3.80356C15.7784 3.54194 16.5199 3.3979 17.0952 3.38174C17.6286 3.36675 18.0165 3.46252 18.5762 3.7304C19.6289 4.23423 20.1017 5.54295 19.689 6.71231L17.1171 13.9992C16.0515 17.0184 19.2639 19.7652 22.081 18.2435L30.1512 13.8844Z" stroke="white"/>
<path d="M54.45 6.5H58.475V31H54.45V6.5ZM72.3309 13.045C74.3376 13.045 75.9592 13.6867 77.1959 14.97C78.4326 16.2533 79.0509 18.015 79.0509 20.255V31H75.2709V20.64C75.2709 19.3333 74.9209 18.33 74.2209 17.63C73.5209 16.93 72.5642 16.58 71.3509 16.58C70.0209 16.58 68.9476 17 68.1309 17.84C67.3142 18.6567 66.9059 19.9167 66.9059 21.62V31H63.1259V13.5H66.9059V15.74C68.0492 13.9433 69.8576 13.045 72.3309 13.045ZM92.326 13.045C94.3327 13.045 95.9544 13.6867 97.191 14.97C98.4277 16.2533 99.046 18.015 99.046 20.255V31H95.266V20.64C95.266 19.3333 94.916 18.33 94.216 17.63C93.516 16.93 92.5593 16.58 91.346 16.58C90.016 16.58 88.9427 17 88.126 17.84C87.3093 18.6567 86.901 19.9167 86.901 21.62V31H83.121V13.5H86.901V15.74C88.0443 13.9433 89.8527 13.045 92.326 13.045ZM111.376 31.455C108.809 31.455 106.628 30.5683 104.831 28.795C103.034 27.0217 102.136 24.84 102.136 22.25C102.136 19.66 103.034 17.4783 104.831 15.705C106.628 13.9317 108.809 13.045 111.376 13.045C113.966 13.045 116.148 13.9317 117.921 15.705C119.718 17.4783 120.616 19.66 120.616 22.25C120.616 24.84 119.718 27.0217 117.921 28.795C116.148 30.5683 113.966 31.455 111.376 31.455ZM107.491 26.205C108.541 27.255 109.836 27.78 111.376 27.78C112.916 27.78 114.211 27.255 115.261 26.205C116.311 25.155 116.836 23.8367 116.836 22.25C116.836 20.6633 116.311 19.345 115.261 18.295C114.211 17.245 112.916 16.72 111.376 16.72C109.836 16.72 108.541 17.245 107.491 18.295C106.441 19.345 105.916 20.6633 105.916 22.25C105.916 23.8367 106.441 25.155 107.491 26.205ZM132.294 31.455C129.657 31.455 127.452 30.5683 125.679 28.795C123.929 27.0217 123.054 24.84 123.054 22.25C123.054 19.6367 123.929 17.455 125.679 15.705C127.452 13.9317 129.657 13.045 132.294 13.045C133.997 13.045 135.549 13.4533 136.949 14.27C138.349 15.0867 139.399 16.1833 140.099 17.56L136.844 19.45C136.447 18.61 135.841 17.9567 135.024 17.49C134.231 17 133.309 16.755 132.259 16.755C130.719 16.755 129.424 17.28 128.374 18.33C127.347 19.38 126.834 20.6867 126.834 22.25C126.834 23.8133 127.347 25.12 128.374 26.17C129.424 27.22 130.719 27.745 132.259 27.745C133.286 27.745 134.207 27.5 135.024 27.01C135.864 26.52 136.494 25.8667 136.914 25.05L140.169 26.905C139.422 28.305 138.349 29.4133 136.949 30.23C135.549 31.0467 133.997 31.455 132.294 31.455ZM146.784 16.44C147.74 14.27 149.537 13.185 152.174 13.185V17.28C150.727 17.1867 149.467 17.5367 148.394 18.33C147.32 19.1 146.784 20.3833 146.784 22.18V31H143.004V13.5H146.784V16.44ZM158.537 10.175C158.07 10.6417 157.51 10.875 156.857 10.875C156.203 10.875 155.632 10.6417 155.142 10.175C154.675 9.685 154.442 9.11333 154.442 8.46C154.442 7.80666 154.675 7.24667 155.142 6.78C155.608 6.29 156.18 6.045 156.857 6.045C157.533 6.045 158.105 6.29 158.572 6.78C159.038 7.24667 159.272 7.80666 159.272 8.46C159.272 9.11333 159.027 9.685 158.537 10.175ZM154.967 31V13.5H158.747V31H154.967ZM172.341 13.045C174.347 13.045 175.969 13.6867 177.206 14.97C178.442 16.2533 179.061 18.015 179.061 20.255V31H175.281V20.64C175.281 19.3333 174.931 18.33 174.231 17.63C173.531 16.93 172.574 16.58 171.361 16.58C170.031 16.58 168.957 17 168.141 17.84C167.324 18.6567 166.916 19.9167 166.916 21.62V31H163.136V13.5H166.916V15.74C168.059 13.9433 169.867 13.045 172.341 13.045Z" fill="#2B2B2B"/>
<defs>
<linearGradient id="paint0_linear_6_47" x1="30" y1="-2.68221e-07" x2="-8" y2="60" gradientUnits="userSpaceOnUse">
<stop stop-color="#F80059"/>
<stop offset="1" stop-color="#1952A7"/>
</linearGradient>
</defs>
</svg>
